# xmcd
#
# Track frame offsets:
#	150
#	16296
#	26793
#	41726
#	57275
#	73488
#	89339
#	101685
#	112564
#	124098
#	144822
#	156513
#	175278
#	189020
#	201474
#	215549
#
# Disc length: 3103
#
# Revision: 1
# Processed by: cddbd v1.5.1PL0 Copyright (c) Steve Scherf et al.
# Submitted via: audiograbber 1.83.01
# Normalized: r0:DSETVAR1
#
DISCID=e30c1d10
DTITLE=Various Artist - A Very Special Acoustic Christmas
DYEAR=2003
DGENRE=pop
TTITLE0=Reba McEntire - Silent Night
TTITLE1=Dan Tyminski - Frosty The Snowman
TTITLE2=Willie Nelson - Please Come Home For Christmas
TTITLE3=Alan Jackson - Just Put A Ribbon In Your Hair
TTITLE4=Alison Krauss - Only You Can Bring Me Cheer (Gentleman's Lady)
TTITLE5=Marty Stuart - Even Santa Gets The Blues
TTITLE6=Earl Scruggs - Jingle Bells
TTITLE7=Ralph Stanley - Christmas Is Near
TTITLE8=Patty Loveless - O Come All Ye Faithful
TTITLE9=Wynonna - O Holy Night
TTITLE10=Pat Green - Winter Wonderland
TTITLE11=Sam Bush - Let It Snow! Let It Snow! Let It Snow!
TTITLE12=Ricky Skaggs - Away In A Manger
TTITLE13=Rhonda Vincent - Christmas Time At Home
TTITLE14=Tift Merritt - I'll Be Home For Christmas
TTITLE15=Norah Jones - Peace
EXTD=
EXTT0=
EXTT1=
EXTT2=
EXTT3=
EXTT4=
EXTT5=
EXTT6=
EXTT7=
EXTT8=
EXTT9=
EXTT10=
EXTT11=
EXTT12=
EXTT13=
EXTT14=
EXTT15=
PLAYORDER=
